<mxfile host="app.diagrams.net" modified="2023-03-10T09:22:26.254Z" agent="5.0 (Macintosh; Intel Mac OS X 10_15_7) AppleWebKit/537.36 (KHTML, like Gecko) Chrome/110.0.0.0 Safari/537.36" etag="T1Ksg3A6AGSTiT_4hmQw" version="21.0.4" type="github">
  <diagram name="第 1 页" id="_fWz3mKXce-xbAd_N4y1">
    <mxGraphModel dx="2081" dy="843" grid="1" gridSize="10" guides="1" tooltips="1" connect="1" arrows="1" fold="1" page="1" pageScale="1" pageWidth="827" pageHeight="1169" math="0" shadow="0">
      <root>
        <mxCell id="0" />
        <mxCell id="1" parent="0" />
        <mxCell id="CrbNRZzl7jmJsJ6pIWmv-7" value="" style="rounded=0;whiteSpace=wrap;html=1;" vertex="1" parent="1">
          <mxGeometry x="-70" y="110" width="429" height="430" as="geometry" />
        </mxCell>
        <mxCell id="CrbNRZzl7jmJsJ6pIWmv-1" value="GPU0" style="rounded=0;whiteSpace=wrap;html=1;" vertex="1" parent="1">
          <mxGeometry x="-50" y="450" width="180" height="60" as="geometry" />
        </mxCell>
        <mxCell id="CrbNRZzl7jmJsJ6pIWmv-2" value="GPU1" style="rounded=0;whiteSpace=wrap;html=1;" vertex="1" parent="1">
          <mxGeometry x="150" y="450" width="186" height="60" as="geometry" />
        </mxCell>
        <mxCell id="CrbNRZzl7jmJsJ6pIWmv-3" value="driver" style="rounded=0;whiteSpace=wrap;html=1;" vertex="1" parent="1">
          <mxGeometry x="-50" y="360" width="386" height="60" as="geometry" />
        </mxCell>
        <mxCell id="CrbNRZzl7jmJsJ6pIWmv-4" value="/dev/render128" style="rounded=0;whiteSpace=wrap;html=1;" vertex="1" parent="1">
          <mxGeometry x="-50" y="278" width="180" height="60" as="geometry" />
        </mxCell>
        <mxCell id="CrbNRZzl7jmJsJ6pIWmv-5" value="/dev/render129" style="rounded=0;whiteSpace=wrap;html=1;" vertex="1" parent="1">
          <mxGeometry x="152" y="278" width="185" height="60" as="geometry" />
        </mxCell>
        <mxCell id="CrbNRZzl7jmJsJ6pIWmv-6" value="android" style="rounded=0;whiteSpace=wrap;html=1;" vertex="1" parent="1">
          <mxGeometry x="50" y="190" width="83" height="60" as="geometry" />
        </mxCell>
        <mxCell id="CrbNRZzl7jmJsJ6pIWmv-8" value="" style="rounded=0;whiteSpace=wrap;html=1;" vertex="1" parent="1">
          <mxGeometry x="469" y="110" width="320" height="430" as="geometry" />
        </mxCell>
        <mxCell id="CrbNRZzl7jmJsJ6pIWmv-9" value="GPU0" style="rounded=0;whiteSpace=wrap;html=1;" vertex="1" parent="1">
          <mxGeometry x="486" y="450" width="120" height="60" as="geometry" />
        </mxCell>
        <mxCell id="CrbNRZzl7jmJsJ6pIWmv-10" value="GPU1" style="rounded=0;whiteSpace=wrap;html=1;" vertex="1" parent="1">
          <mxGeometry x="646" y="450" width="120" height="60" as="geometry" />
        </mxCell>
        <mxCell id="CrbNRZzl7jmJsJ6pIWmv-11" value="driver0" style="rounded=0;whiteSpace=wrap;html=1;" vertex="1" parent="1">
          <mxGeometry x="486" y="360" width="123" height="60" as="geometry" />
        </mxCell>
        <mxCell id="CrbNRZzl7jmJsJ6pIWmv-12" value="/dev/render128" style="rounded=0;whiteSpace=wrap;html=1;" vertex="1" parent="1">
          <mxGeometry x="486" y="278" width="120" height="60" as="geometry" />
        </mxCell>
        <mxCell id="CrbNRZzl7jmJsJ6pIWmv-13" value="/dev/render129" style="rounded=0;whiteSpace=wrap;html=1;" vertex="1" parent="1">
          <mxGeometry x="646" y="278" width="120" height="60" as="geometry" />
        </mxCell>
        <mxCell id="CrbNRZzl7jmJsJ6pIWmv-15" value="android" style="rounded=0;whiteSpace=wrap;html=1;" vertex="1" parent="1">
          <mxGeometry x="154.5" y="190" width="83" height="60" as="geometry" />
        </mxCell>
        <mxCell id="CrbNRZzl7jmJsJ6pIWmv-16" value="android" style="rounded=0;whiteSpace=wrap;html=1;" vertex="1" parent="1">
          <mxGeometry x="253" y="190" width="83" height="60" as="geometry" />
        </mxCell>
        <mxCell id="CrbNRZzl7jmJsJ6pIWmv-17" value="libdrm" style="rounded=0;whiteSpace=wrap;html=1;" vertex="1" parent="1">
          <mxGeometry x="253" y="130" width="83" height="60" as="geometry" />
        </mxCell>
        <mxCell id="CrbNRZzl7jmJsJ6pIWmv-18" value="libdrm" style="rounded=0;whiteSpace=wrap;html=1;" vertex="1" parent="1">
          <mxGeometry x="154.5" y="130" width="83" height="60" as="geometry" />
        </mxCell>
        <mxCell id="CrbNRZzl7jmJsJ6pIWmv-19" value="libdrm" style="rounded=0;whiteSpace=wrap;html=1;" vertex="1" parent="1">
          <mxGeometry x="50" y="130" width="83" height="60" as="geometry" />
        </mxCell>
        <mxCell id="CrbNRZzl7jmJsJ6pIWmv-20" value="android" style="rounded=0;whiteSpace=wrap;html=1;" vertex="1" parent="1">
          <mxGeometry x="489" y="190" width="83" height="60" as="geometry" />
        </mxCell>
        <mxCell id="CrbNRZzl7jmJsJ6pIWmv-21" value="android" style="rounded=0;whiteSpace=wrap;html=1;" vertex="1" parent="1">
          <mxGeometry x="587.5" y="190" width="83" height="60" as="geometry" />
        </mxCell>
        <mxCell id="CrbNRZzl7jmJsJ6pIWmv-22" value="android" style="rounded=0;whiteSpace=wrap;html=1;" vertex="1" parent="1">
          <mxGeometry x="686" y="190" width="83" height="60" as="geometry" />
        </mxCell>
        <mxCell id="CrbNRZzl7jmJsJ6pIWmv-23" value="libdrm1" style="rounded=0;whiteSpace=wrap;html=1;" vertex="1" parent="1">
          <mxGeometry x="686" y="130" width="83" height="60" as="geometry" />
        </mxCell>
        <mxCell id="CrbNRZzl7jmJsJ6pIWmv-24" value="libdrm0" style="rounded=0;whiteSpace=wrap;html=1;" vertex="1" parent="1">
          <mxGeometry x="587.5" y="130" width="83" height="60" as="geometry" />
        </mxCell>
        <mxCell id="CrbNRZzl7jmJsJ6pIWmv-25" value="libdrm0" style="rounded=0;whiteSpace=wrap;html=1;" vertex="1" parent="1">
          <mxGeometry x="489" y="130" width="83" height="60" as="geometry" />
        </mxCell>
        <mxCell id="CrbNRZzl7jmJsJ6pIWmv-27" value="driver1" style="rounded=0;whiteSpace=wrap;html=1;" vertex="1" parent="1">
          <mxGeometry x="644.5" y="360" width="123" height="60" as="geometry" />
        </mxCell>
        <mxCell id="CrbNRZzl7jmJsJ6pIWmv-28" value="android" style="rounded=0;whiteSpace=wrap;html=1;" vertex="1" parent="1">
          <mxGeometry x="-50" y="190" width="83" height="60" as="geometry" />
        </mxCell>
        <mxCell id="CrbNRZzl7jmJsJ6pIWmv-29" value="libdrm" style="rounded=0;whiteSpace=wrap;html=1;" vertex="1" parent="1">
          <mxGeometry x="-50" y="130" width="83" height="60" as="geometry" />
        </mxCell>
      </root>
    </mxGraphModel>
  </diagram>
</mxfile>
